<mxfile host="app.diagrams.net" modified="2024-01-12T14:59:23.456Z" agent="Mozilla/5.0 (Macintosh; Intel Mac OS X 10_15_7) AppleWebKit/537.36 (KHTML, like Gecko) Chrome/120.0.0.0 Safari/537.36" etag="JiF5iROQzQG_Rn45Cmj7" version="22.1.18" type="github">
  <diagram name="第 1 页" id="Y0SxacPxAmktTT1SmDo6">
    <mxGraphModel dx="1562" dy="858" grid="1" gridSize="10" guides="1" tooltips="1" connect="1" arrows="1" fold="1" page="1" pageScale="1" pageWidth="827" pageHeight="1169" math="0" shadow="0">
      <root>
        <mxCell id="0" />
        <mxCell id="1" parent="0" />
        <mxCell id="7q71eSsdtGfGwSLbLFE9-16" value="" style="rounded=0;whiteSpace=wrap;html=1;" vertex="1" parent="1">
          <mxGeometry x="255" y="305" width="665" height="285" as="geometry" />
        </mxCell>
        <mxCell id="7q71eSsdtGfGwSLbLFE9-72" style="edgeStyle=orthogonalEdgeStyle;rounded=0;orthogonalLoop=1;jettySize=auto;html=1;exitX=1;exitY=0.5;exitDx=0;exitDy=0;entryX=0;entryY=0.5;entryDx=0;entryDy=0;" edge="1" parent="1" source="7q71eSsdtGfGwSLbLFE9-62" target="7q71eSsdtGfGwSLbLFE9-70">
          <mxGeometry relative="1" as="geometry" />
        </mxCell>
        <mxCell id="7q71eSsdtGfGwSLbLFE9-62" value="" style="rounded=1;whiteSpace=wrap;html=1;" vertex="1" parent="1">
          <mxGeometry x="640" y="317.5" width="260" height="240" as="geometry" />
        </mxCell>
        <mxCell id="7q71eSsdtGfGwSLbLFE9-69" style="edgeStyle=orthogonalEdgeStyle;rounded=0;orthogonalLoop=1;jettySize=auto;html=1;exitX=1;exitY=0.5;exitDx=0;exitDy=0;entryX=0.5;entryY=1;entryDx=0;entryDy=0;" edge="1" parent="1" source="7q71eSsdtGfGwSLbLFE9-18" target="7q71eSsdtGfGwSLbLFE9-63">
          <mxGeometry relative="1" as="geometry" />
        </mxCell>
        <mxCell id="7q71eSsdtGfGwSLbLFE9-18" value="" style="rounded=1;whiteSpace=wrap;html=1;" vertex="1" parent="1">
          <mxGeometry x="350" y="317.5" width="260" height="242.5" as="geometry" />
        </mxCell>
        <mxCell id="7q71eSsdtGfGwSLbLFE9-1" value="[m]" style="rounded=1;whiteSpace=wrap;html=1;" vertex="1" parent="1">
          <mxGeometry x="175" y="362.5" width="30" height="30" as="geometry" />
        </mxCell>
        <mxCell id="7q71eSsdtGfGwSLbLFE9-3" value="t_1" style="rounded=1;whiteSpace=wrap;html=1;" vertex="1" parent="1">
          <mxGeometry x="205" y="362.5" width="30" height="30" as="geometry" />
        </mxCell>
        <mxCell id="7q71eSsdtGfGwSLbLFE9-4" value="t_2" style="rounded=1;whiteSpace=wrap;html=1;" vertex="1" parent="1">
          <mxGeometry x="175" y="392.5" width="30" height="30" as="geometry" />
        </mxCell>
        <mxCell id="7q71eSsdtGfGwSLbLFE9-5" value="t_2" style="rounded=1;whiteSpace=wrap;html=1;" vertex="1" parent="1">
          <mxGeometry x="205" y="392.5" width="30" height="30" as="geometry" />
        </mxCell>
        <mxCell id="7q71eSsdtGfGwSLbLFE9-10" value="t_l-2" style="rounded=1;whiteSpace=wrap;html=1;" vertex="1" parent="1">
          <mxGeometry x="175" y="452.5" width="30" height="30" as="geometry" />
        </mxCell>
        <mxCell id="7q71eSsdtGfGwSLbLFE9-11" value="[m]" style="rounded=1;whiteSpace=wrap;html=1;" vertex="1" parent="1">
          <mxGeometry x="205" y="452.5" width="30" height="30" as="geometry" />
        </mxCell>
        <mxCell id="7q71eSsdtGfGwSLbLFE9-12" value="t_l-1" style="rounded=1;whiteSpace=wrap;html=1;" vertex="1" parent="1">
          <mxGeometry x="175" y="482.5" width="30" height="30" as="geometry" />
        </mxCell>
        <mxCell id="7q71eSsdtGfGwSLbLFE9-13" value="t_l1" style="rounded=1;whiteSpace=wrap;html=1;" vertex="1" parent="1">
          <mxGeometry x="205" y="482.5" width="30" height="30" as="geometry" />
        </mxCell>
        <mxCell id="7q71eSsdtGfGwSLbLFE9-14" value="..." style="text;html=1;strokeColor=none;fillColor=none;align=center;verticalAlign=middle;whiteSpace=wrap;rounded=0;" vertex="1" parent="1">
          <mxGeometry x="160" y="422.5" width="60" height="30" as="geometry" />
        </mxCell>
        <mxCell id="7q71eSsdtGfGwSLbLFE9-15" value="..." style="text;html=1;strokeColor=none;fillColor=none;align=center;verticalAlign=middle;whiteSpace=wrap;rounded=0;" vertex="1" parent="1">
          <mxGeometry x="190" y="422.5" width="60" height="30" as="geometry" />
        </mxCell>
        <mxCell id="7q71eSsdtGfGwSLbLFE9-60" style="edgeStyle=orthogonalEdgeStyle;rounded=0;orthogonalLoop=1;jettySize=auto;html=1;exitX=1;exitY=0.5;exitDx=0;exitDy=0;entryX=0.5;entryY=1;entryDx=0;entryDy=0;" edge="1" parent="1" source="7q71eSsdtGfGwSLbLFE9-17" target="7q71eSsdtGfGwSLbLFE9-56">
          <mxGeometry relative="1" as="geometry">
            <Array as="points">
              <mxPoint x="320" y="428" />
              <mxPoint x="320" y="580" />
              <mxPoint x="480" y="580" />
            </Array>
          </mxGeometry>
        </mxCell>
        <mxCell id="7q71eSsdtGfGwSLbLFE9-17" value="positional encoding" style="rounded=0;whiteSpace=wrap;html=1;horizontal=0;" vertex="1" parent="1">
          <mxGeometry x="270" y="332.5" width="30" height="217.5" as="geometry" />
        </mxCell>
        <mxCell id="7q71eSsdtGfGwSLbLFE9-19" value="Layer normalization" style="rounded=1;whiteSpace=wrap;html=1;" vertex="1" parent="1">
          <mxGeometry x="380" y="327.5" width="200" height="30" as="geometry" />
        </mxCell>
        <mxCell id="7q71eSsdtGfGwSLbLFE9-20" value="" style="rounded=1;whiteSpace=wrap;html=1;" vertex="1" parent="1">
          <mxGeometry x="360" y="377.5" width="200" height="145" as="geometry" />
        </mxCell>
        <mxCell id="7q71eSsdtGfGwSLbLFE9-21" value="out" style="rounded=0;whiteSpace=wrap;html=1;" vertex="1" parent="1">
          <mxGeometry x="440" y="387.5" width="40" height="20" as="geometry" />
        </mxCell>
        <mxCell id="7q71eSsdtGfGwSLbLFE9-33" style="edgeStyle=orthogonalEdgeStyle;rounded=0;orthogonalLoop=1;jettySize=auto;html=1;exitX=0.5;exitY=0;exitDx=0;exitDy=0;entryX=0.5;entryY=1;entryDx=0;entryDy=0;" edge="1" parent="1" source="7q71eSsdtGfGwSLbLFE9-22" target="7q71eSsdtGfGwSLbLFE9-21">
          <mxGeometry relative="1" as="geometry" />
        </mxCell>
        <mxCell id="7q71eSsdtGfGwSLbLFE9-22" value="self-attention" style="rounded=1;whiteSpace=wrap;html=1;dashed=1;" vertex="1" parent="1">
          <mxGeometry x="400" y="427.5" width="120" height="20" as="geometry" />
        </mxCell>
        <mxCell id="7q71eSsdtGfGwSLbLFE9-28" style="rounded=0;orthogonalLoop=1;jettySize=auto;html=1;exitX=0.5;exitY=0;exitDx=0;exitDy=0;entryX=0.5;entryY=1;entryDx=0;entryDy=0;" edge="1" parent="1" source="7q71eSsdtGfGwSLbLFE9-23" target="7q71eSsdtGfGwSLbLFE9-22">
          <mxGeometry relative="1" as="geometry" />
        </mxCell>
        <mxCell id="7q71eSsdtGfGwSLbLFE9-23" value="key" style="rounded=0;whiteSpace=wrap;html=1;" vertex="1" parent="1">
          <mxGeometry x="370" y="467.5" width="46" height="25" as="geometry" />
        </mxCell>
        <mxCell id="7q71eSsdtGfGwSLbLFE9-31" style="edgeStyle=orthogonalEdgeStyle;rounded=0;orthogonalLoop=1;jettySize=auto;html=1;exitX=0.5;exitY=0;exitDx=0;exitDy=0;entryX=0.5;entryY=1;entryDx=0;entryDy=0;" edge="1" parent="1" source="7q71eSsdtGfGwSLbLFE9-24" target="7q71eSsdtGfGwSLbLFE9-22">
          <mxGeometry relative="1" as="geometry" />
        </mxCell>
        <mxCell id="7q71eSsdtGfGwSLbLFE9-24" value="value" style="rounded=0;whiteSpace=wrap;html=1;" vertex="1" parent="1">
          <mxGeometry x="437" y="467.5" width="46" height="25" as="geometry" />
        </mxCell>
        <mxCell id="7q71eSsdtGfGwSLbLFE9-32" style="rounded=0;orthogonalLoop=1;jettySize=auto;html=1;exitX=0.5;exitY=0;exitDx=0;exitDy=0;entryX=0.5;entryY=1;entryDx=0;entryDy=0;" edge="1" parent="1" source="7q71eSsdtGfGwSLbLFE9-25" target="7q71eSsdtGfGwSLbLFE9-22">
          <mxGeometry relative="1" as="geometry" />
        </mxCell>
        <mxCell id="7q71eSsdtGfGwSLbLFE9-25" value="query" style="rounded=0;whiteSpace=wrap;html=1;" vertex="1" parent="1">
          <mxGeometry x="500" y="467.5" width="46" height="25" as="geometry" />
        </mxCell>
        <mxCell id="7q71eSsdtGfGwSLbLFE9-34" value="Multi-head attention" style="text;html=1;strokeColor=none;fillColor=none;align=center;verticalAlign=middle;whiteSpace=wrap;rounded=0;" vertex="1" parent="1">
          <mxGeometry x="395" y="492.5" width="130" height="30" as="geometry" />
        </mxCell>
        <mxCell id="7q71eSsdtGfGwSLbLFE9-35" value="" style="rounded=1;whiteSpace=wrap;html=1;" vertex="1" parent="1">
          <mxGeometry x="370" y="387.5" width="200" height="145" as="geometry" />
        </mxCell>
        <mxCell id="7q71eSsdtGfGwSLbLFE9-36" value="out" style="rounded=0;whiteSpace=wrap;html=1;" vertex="1" parent="1">
          <mxGeometry x="450" y="397.5" width="40" height="20" as="geometry" />
        </mxCell>
        <mxCell id="7q71eSsdtGfGwSLbLFE9-37" style="edgeStyle=orthogonalEdgeStyle;rounded=0;orthogonalLoop=1;jettySize=auto;html=1;exitX=0.5;exitY=0;exitDx=0;exitDy=0;entryX=0.5;entryY=1;entryDx=0;entryDy=0;" edge="1" parent="1" source="7q71eSsdtGfGwSLbLFE9-38" target="7q71eSsdtGfGwSLbLFE9-36">
          <mxGeometry relative="1" as="geometry" />
        </mxCell>
        <mxCell id="7q71eSsdtGfGwSLbLFE9-38" value="self-attention" style="rounded=1;whiteSpace=wrap;html=1;dashed=1;" vertex="1" parent="1">
          <mxGeometry x="410" y="437.5" width="120" height="20" as="geometry" />
        </mxCell>
        <mxCell id="7q71eSsdtGfGwSLbLFE9-39" style="rounded=0;orthogonalLoop=1;jettySize=auto;html=1;exitX=0.5;exitY=0;exitDx=0;exitDy=0;entryX=0.5;entryY=1;entryDx=0;entryDy=0;" edge="1" parent="1" source="7q71eSsdtGfGwSLbLFE9-40" target="7q71eSsdtGfGwSLbLFE9-38">
          <mxGeometry relative="1" as="geometry" />
        </mxCell>
        <mxCell id="7q71eSsdtGfGwSLbLFE9-40" value="key" style="rounded=0;whiteSpace=wrap;html=1;" vertex="1" parent="1">
          <mxGeometry x="380" y="477.5" width="46" height="25" as="geometry" />
        </mxCell>
        <mxCell id="7q71eSsdtGfGwSLbLFE9-41" style="edgeStyle=orthogonalEdgeStyle;rounded=0;orthogonalLoop=1;jettySize=auto;html=1;exitX=0.5;exitY=0;exitDx=0;exitDy=0;entryX=0.5;entryY=1;entryDx=0;entryDy=0;" edge="1" parent="1" source="7q71eSsdtGfGwSLbLFE9-42" target="7q71eSsdtGfGwSLbLFE9-38">
          <mxGeometry relative="1" as="geometry" />
        </mxCell>
        <mxCell id="7q71eSsdtGfGwSLbLFE9-42" value="value" style="rounded=0;whiteSpace=wrap;html=1;" vertex="1" parent="1">
          <mxGeometry x="447" y="477.5" width="46" height="25" as="geometry" />
        </mxCell>
        <mxCell id="7q71eSsdtGfGwSLbLFE9-43" style="rounded=0;orthogonalLoop=1;jettySize=auto;html=1;exitX=0.5;exitY=0;exitDx=0;exitDy=0;entryX=0.5;entryY=1;entryDx=0;entryDy=0;" edge="1" parent="1" source="7q71eSsdtGfGwSLbLFE9-44" target="7q71eSsdtGfGwSLbLFE9-38">
          <mxGeometry relative="1" as="geometry" />
        </mxCell>
        <mxCell id="7q71eSsdtGfGwSLbLFE9-44" value="query" style="rounded=0;whiteSpace=wrap;html=1;" vertex="1" parent="1">
          <mxGeometry x="510" y="477.5" width="46" height="25" as="geometry" />
        </mxCell>
        <mxCell id="7q71eSsdtGfGwSLbLFE9-45" value="Multi-head attention" style="text;html=1;strokeColor=none;fillColor=none;align=center;verticalAlign=middle;whiteSpace=wrap;rounded=0;" vertex="1" parent="1">
          <mxGeometry x="405" y="502.5" width="130" height="30" as="geometry" />
        </mxCell>
        <mxCell id="7q71eSsdtGfGwSLbLFE9-57" style="edgeStyle=orthogonalEdgeStyle;rounded=0;orthogonalLoop=1;jettySize=auto;html=1;exitX=0.5;exitY=0;exitDx=0;exitDy=0;entryX=0.5;entryY=1;entryDx=0;entryDy=0;" edge="1" parent="1" source="7q71eSsdtGfGwSLbLFE9-46" target="7q71eSsdtGfGwSLbLFE9-19">
          <mxGeometry relative="1" as="geometry" />
        </mxCell>
        <mxCell id="7q71eSsdtGfGwSLbLFE9-46" value="" style="rounded=1;whiteSpace=wrap;html=1;" vertex="1" parent="1">
          <mxGeometry x="380" y="397.5" width="200" height="145" as="geometry" />
        </mxCell>
        <mxCell id="7q71eSsdtGfGwSLbLFE9-47" value="out" style="rounded=0;whiteSpace=wrap;html=1;" vertex="1" parent="1">
          <mxGeometry x="460" y="407.5" width="40" height="20" as="geometry" />
        </mxCell>
        <mxCell id="7q71eSsdtGfGwSLbLFE9-48" style="edgeStyle=orthogonalEdgeStyle;rounded=0;orthogonalLoop=1;jettySize=auto;html=1;exitX=0.5;exitY=0;exitDx=0;exitDy=0;entryX=0.5;entryY=1;entryDx=0;entryDy=0;" edge="1" parent="1" source="7q71eSsdtGfGwSLbLFE9-49" target="7q71eSsdtGfGwSLbLFE9-47">
          <mxGeometry relative="1" as="geometry" />
        </mxCell>
        <mxCell id="7q71eSsdtGfGwSLbLFE9-49" value="self-attention" style="rounded=1;whiteSpace=wrap;html=1;dashed=1;" vertex="1" parent="1">
          <mxGeometry x="420" y="447.5" width="120" height="20" as="geometry" />
        </mxCell>
        <mxCell id="7q71eSsdtGfGwSLbLFE9-50" style="rounded=0;orthogonalLoop=1;jettySize=auto;html=1;exitX=0.5;exitY=0;exitDx=0;exitDy=0;entryX=0.5;entryY=1;entryDx=0;entryDy=0;" edge="1" parent="1" source="7q71eSsdtGfGwSLbLFE9-51" target="7q71eSsdtGfGwSLbLFE9-49">
          <mxGeometry relative="1" as="geometry" />
        </mxCell>
        <mxCell id="7q71eSsdtGfGwSLbLFE9-51" value="key" style="rounded=0;whiteSpace=wrap;html=1;" vertex="1" parent="1">
          <mxGeometry x="390" y="487.5" width="46" height="25" as="geometry" />
        </mxCell>
        <mxCell id="7q71eSsdtGfGwSLbLFE9-52" style="edgeStyle=orthogonalEdgeStyle;rounded=0;orthogonalLoop=1;jettySize=auto;html=1;exitX=0.5;exitY=0;exitDx=0;exitDy=0;entryX=0.5;entryY=1;entryDx=0;entryDy=0;" edge="1" parent="1" source="7q71eSsdtGfGwSLbLFE9-53" target="7q71eSsdtGfGwSLbLFE9-49">
          <mxGeometry relative="1" as="geometry" />
        </mxCell>
        <mxCell id="7q71eSsdtGfGwSLbLFE9-53" value="value" style="rounded=0;whiteSpace=wrap;html=1;" vertex="1" parent="1">
          <mxGeometry x="457" y="487.5" width="46" height="25" as="geometry" />
        </mxCell>
        <mxCell id="7q71eSsdtGfGwSLbLFE9-54" style="rounded=0;orthogonalLoop=1;jettySize=auto;html=1;exitX=0.5;exitY=0;exitDx=0;exitDy=0;entryX=0.5;entryY=1;entryDx=0;entryDy=0;" edge="1" parent="1" source="7q71eSsdtGfGwSLbLFE9-55" target="7q71eSsdtGfGwSLbLFE9-49">
          <mxGeometry relative="1" as="geometry" />
        </mxCell>
        <mxCell id="7q71eSsdtGfGwSLbLFE9-55" value="query" style="rounded=0;whiteSpace=wrap;html=1;" vertex="1" parent="1">
          <mxGeometry x="520" y="487.5" width="46" height="25" as="geometry" />
        </mxCell>
        <mxCell id="7q71eSsdtGfGwSLbLFE9-56" value="Multi-head attention" style="text;html=1;strokeColor=none;fillColor=none;align=center;verticalAlign=middle;whiteSpace=wrap;rounded=0;" vertex="1" parent="1">
          <mxGeometry x="415" y="512.5" width="130" height="30" as="geometry" />
        </mxCell>
        <mxCell id="7q71eSsdtGfGwSLbLFE9-63" value="" style="rounded=1;whiteSpace=wrap;html=1;dashed=1;" vertex="1" parent="1">
          <mxGeometry x="652.5" y="420" width="235" height="120" as="geometry" />
        </mxCell>
        <mxCell id="7q71eSsdtGfGwSLbLFE9-68" style="edgeStyle=orthogonalEdgeStyle;rounded=0;orthogonalLoop=1;jettySize=auto;html=1;exitX=0.5;exitY=0;exitDx=0;exitDy=0;entryX=0.5;entryY=1;entryDx=0;entryDy=0;" edge="1" parent="1" source="7q71eSsdtGfGwSLbLFE9-64" target="7q71eSsdtGfGwSLbLFE9-67">
          <mxGeometry relative="1" as="geometry" />
        </mxCell>
        <mxCell id="7q71eSsdtGfGwSLbLFE9-64" value="Feed Forward network (w2)" style="rounded=1;whiteSpace=wrap;html=1;" vertex="1" parent="1">
          <mxGeometry x="670.5" y="430" width="200" height="40" as="geometry" />
        </mxCell>
        <mxCell id="7q71eSsdtGfGwSLbLFE9-66" style="edgeStyle=orthogonalEdgeStyle;rounded=0;orthogonalLoop=1;jettySize=auto;html=1;exitX=0.5;exitY=0;exitDx=0;exitDy=0;entryX=0.5;entryY=1;entryDx=0;entryDy=0;" edge="1" parent="1" source="7q71eSsdtGfGwSLbLFE9-65" target="7q71eSsdtGfGwSLbLFE9-64">
          <mxGeometry relative="1" as="geometry" />
        </mxCell>
        <mxCell id="7q71eSsdtGfGwSLbLFE9-65" value="Feed Forward network (w1)&lt;br&gt;with activation" style="rounded=1;whiteSpace=wrap;html=1;" vertex="1" parent="1">
          <mxGeometry x="670.5" y="490" width="200" height="40" as="geometry" />
        </mxCell>
        <mxCell id="7q71eSsdtGfGwSLbLFE9-67" value="Layer normalization" style="rounded=1;whiteSpace=wrap;html=1;" vertex="1" parent="1">
          <mxGeometry x="670" y="347.5" width="200" height="40" as="geometry" />
        </mxCell>
        <mxCell id="7q71eSsdtGfGwSLbLFE9-73" style="edgeStyle=orthogonalEdgeStyle;rounded=0;orthogonalLoop=1;jettySize=auto;html=1;exitX=1;exitY=0.5;exitDx=0;exitDy=0;entryX=0;entryY=0.5;entryDx=0;entryDy=0;" edge="1" parent="1" source="7q71eSsdtGfGwSLbLFE9-70" target="7q71eSsdtGfGwSLbLFE9-71">
          <mxGeometry relative="1" as="geometry" />
        </mxCell>
        <mxCell id="7q71eSsdtGfGwSLbLFE9-70" value="Softmax" style="rounded=1;whiteSpace=wrap;html=1;horizontal=0;" vertex="1" parent="1">
          <mxGeometry x="940" y="347.5" width="40" height="180" as="geometry" />
        </mxCell>
        <mxCell id="7q71eSsdtGfGwSLbLFE9-71" value="Generator" style="rounded=1;whiteSpace=wrap;html=1;horizontal=0;" vertex="1" parent="1">
          <mxGeometry x="1020" y="347.5" width="40" height="180" as="geometry" />
        </mxCell>
        <mxCell id="7q71eSsdtGfGwSLbLFE9-74" value="p(t_1)" style="rounded=1;whiteSpace=wrap;html=1;" vertex="1" parent="1">
          <mxGeometry x="1075" y="353.75" width="50" height="40" as="geometry" />
        </mxCell>
        <mxCell id="7q71eSsdtGfGwSLbLFE9-75" value="p(t_2)" style="rounded=1;whiteSpace=wrap;html=1;" vertex="1" parent="1">
          <mxGeometry x="1075" y="403.75" width="50" height="40" as="geometry" />
        </mxCell>
        <mxCell id="7q71eSsdtGfGwSLbLFE9-76" value="p(t_m)" style="rounded=1;whiteSpace=wrap;html=1;" vertex="1" parent="1">
          <mxGeometry x="1075" y="483.75" width="50" height="40" as="geometry" />
        </mxCell>
        <mxCell id="7q71eSsdtGfGwSLbLFE9-77" value="..." style="text;html=1;strokeColor=none;fillColor=none;align=center;verticalAlign=middle;whiteSpace=wrap;rounded=0;" vertex="1" parent="1">
          <mxGeometry x="1070" y="443.75" width="60" height="30" as="geometry" />
        </mxCell>
        <mxCell id="7q71eSsdtGfGwSLbLFE9-78" value="Input:" style="text;html=1;strokeColor=none;fillColor=none;align=center;verticalAlign=middle;whiteSpace=wrap;rounded=0;" vertex="1" parent="1">
          <mxGeometry x="160" y="317.5" width="60" height="30" as="geometry" />
        </mxCell>
        <mxCell id="7q71eSsdtGfGwSLbLFE9-79" value="log 1" style="text;html=1;strokeColor=none;fillColor=none;align=center;verticalAlign=middle;whiteSpace=wrap;rounded=0;" vertex="1" parent="1">
          <mxGeometry x="160" y="335" width="60" height="30" as="geometry" />
        </mxCell>
        <mxCell id="7q71eSsdtGfGwSLbLFE9-80" value="log 2" style="text;html=1;strokeColor=none;fillColor=none;align=center;verticalAlign=middle;whiteSpace=wrap;rounded=0;" vertex="1" parent="1">
          <mxGeometry x="190" y="335" width="60" height="30" as="geometry" />
        </mxCell>
        <mxCell id="7q71eSsdtGfGwSLbLFE9-81" value="Output:" style="text;html=1;strokeColor=none;fillColor=none;align=center;verticalAlign=middle;whiteSpace=wrap;rounded=0;" vertex="1" parent="1">
          <mxGeometry x="1060" y="324" width="60" height="30" as="geometry" />
        </mxCell>
      </root>
    </mxGraphModel>
  </diagram>
</mxfile>
